<?xml version="1.0" encoding="utf-8"?>
<!-- Generator: Adobe Illustrator 15.0.2, SVG Export Plug-In . SVG Version: 6.00 Build 0)  -->
<!DOCTYPE svg PUBLIC "-//W3C//DTD SVG 1.1//EN" "http://www.w3.org/Graphics/SVG/1.1/DTD/svg11.dtd">
<svg version="1.1" id="Слой_1" xmlns="http://www.w3.org/2000/svg" xmlns:xlink="http://www.w3.org/1999/xlink" x="0px" y="0px"
	 width="30px" height="30px" viewBox="0 0 30 30" enable-background="new 0 0 30 30" xml:space="preserve">
<rect fill="none" width="30" height="30"/>
<path fill="#FFFFFF" d="M17,5.586L15.414,4C15.037,3.623,14.535,3.416,14,3.416S12.963,3.623,12.586,4L3,13.586
	c-0.78,0.779-0.78,2.049,0,2.828L12.586,26c0.377,0.377,0.879,0.584,1.414,0.584s1.037-0.207,1.414-0.584L17,24.414
	c0.779-0.779,0.779-2.049,0-2.828L13.414,18H26c1.104,0,2-0.896,2-2v-2c0-1.103-0.896-2-2-2H13.414L17,8.414
	C17.779,7.635,17.779,6.365,17,5.586z"/>
<path fill-opacity="0.3" d="M26.125,12.25H11l5.293-5.543c0.389-0.389,0.389-1.025,0.125-1.539l-1.586-1.586
	C14.333,3.303,14,3,13.293,3.707l-9.461,9.461c-0.514,0.514-0.514,2.15-0.125,2.539l9.586,9.586c0.389,0.389,1.025,0.389,1.414,0
	l2.086-2.086c0.389-0.389,0.389-1.025,0-1.414L12,17h14.25c0.886,0,1.375-0.489,1.375-1.375v-2
	C27.625,12.742,27.011,12.25,26.125,12.25z"/>
<linearGradient id="SVGID_1_" gradientUnits="userSpaceOnUse" x1="15.2075" y1="25.584" x2="15.2075" y2="4.4155">
	<stop  offset="0" style="stop-color:#636363"/>
	<stop  offset="0.4055" style="stop-color:#212121"/>
	<stop  offset="1" style="stop-color:#000000"/>
</linearGradient>
<path fill="url(#SVGID_1_)" d="M26,13H11l5.293-5.293c0.389-0.389,0.389-1.025,0-1.414l-1.586-1.586
	c-0.389-0.389-1.025-0.389-1.414,0l-9.586,9.586c-0.389,0.389-0.389,1.025,0,1.414l9.586,9.586c0.389,0.389,1.025,0.389,1.414,0
	l1.586-1.586c0.389-0.389,0.389-1.025,0-1.414L11,17h15c0.55,0,1-0.45,1-1v-2C27,13.45,26.55,13,26,13z"/>
</svg>
