<?xml version="1.0" encoding="utf-8"?>
<!-- Generator: Adobe Illustrator 15.0.2, SVG Export Plug-In . SVG Version: 6.00 Build 0)  -->
<!DOCTYPE svg PUBLIC "-//W3C//DTD SVG 1.1//EN" "http://www.w3.org/Graphics/SVG/1.1/DTD/svg11.dtd">
<svg version="1.1" id="Слой_1" xmlns="http://www.w3.org/2000/svg" xmlns:xlink="http://www.w3.org/1999/xlink" x="0px" y="0px"
	 width="96px" height="96px" viewBox="0 0 96 96" enable-background="new 0 0 96 96" xml:space="preserve">
<rect fill="none" width="96" height="96"/>
<path opacity="0.5" d="M88,47.999C88,77.634,77.64,88,48.002,88S8,77.634,8,47.999C8.001,18.363,18.366,8,48.003,8
	S88,18.363,88,47.999z"/>
<g>
	
		<linearGradient id="SVGID_1_" gradientUnits="userSpaceOnUse" x1="3878.0547" y1="-5576.3965" x2="3878.0547" y2="-5497.811" gradientTransform="matrix(1 0 0 -1 -3830.0547 -5489.5654)">
		<stop  offset="0" style="stop-color:#960021"/>
		<stop  offset="1" style="stop-color:#E60014"/>
	</linearGradient>
	<path fill="url(#SVGID_1_)" d="M87.5,47.5C87.5,76.764,77.27,87,48.002,87C18.735,87,8.5,76.764,8.5,47.5
		C8.501,18.234,18.737,8,48.003,8C77.27,8,87.5,18.234,87.5,47.5z"/>
	
		<linearGradient id="SVGID_2_" gradientUnits="userSpaceOnUse" x1="3878.0547" y1="-5576.3184" x2="3878.0547" y2="-5498.0649" gradientTransform="matrix(1 0 0 -1 -3830.0547 -5489.5654)">
		<stop  offset="0" style="stop-color:#000000;stop-opacity:0.4"/>
		<stop  offset="1" style="stop-color:#FFFFFF"/>
	</linearGradient>
	<path opacity="0.4" fill="url(#SVGID_2_)" enable-background="new    " d="M47.997,8C18.734,8,8.5,18.235,8.5,47.499
		C8.5,76.768,18.733,87,47.997,87C77.262,87,87.5,76.766,87.5,47.499C87.5,18.235,77.262,8,47.997,8z M47.999,86
		C19.215,86,9.5,76.282,9.5,47.495C9.5,18.713,19.215,9,47.999,9C76.779,9,86.5,18.714,86.5,47.496C86.5,76.282,76.777,86,47.999,86
		z"/>
</g>
<g>
	<path opacity="0.15" enable-background="new    " d="M67.6,29.181l2.583-4.47c0.366-0.633,0.146-1.446-0.485-1.812l-8.034-4.639
		c-0.632-0.365-1.449-0.148-1.813,0.482l-2.579,4.472c-0.132-0.044-0.257-0.091-0.391-0.129c0.039-0.168,0.066-0.344,0.066-0.524
		v-7.957c0-1.278-1.043-2.319-2.321-2.319h-13.26c-1.276,0-2.32,1.042-2.32,2.319v7.955c0,0.182,0.025,0.356,0.066,0.525
		c-0.148,0.045-0.292,0.099-0.44,0.149l-2.62-4.541c-0.366-0.633-1.181-0.849-1.812-0.484l-8.038,4.64
		c-0.629,0.364-0.85,1.178-0.483,1.81l2.634,4.563C22.309,34.625,18.5,42.477,18.5,51.219c0,17.479,12.608,29.494,29.497,29.494
		c16.294,0,29.503-13.203,29.503-29.494C77.498,42.452,73.669,34.585,67.6,29.181z M44.496,34.097
		c-0.31,0.605-0.486,1.306-0.486,2.09v17.852c-0.507-0.301-2.105,0.23-3.47,0.729c-3.164,1.15-4.971,3.552-5.937,5.338
		c-0.241,0.44-0.375,1.076-0.446,1.748c-2.27-2.944-3.633-6.625-3.633-10.635C30.522,42.768,36.523,35.717,44.496,34.097z
		 M48.489,68.663c1.029-0.597,2.153-1.579,2.774-2.142c0.872-0.646,2.016-3.036,2.182-3.978c0.094-0.289,0.138-1.098,0.146-1.389
		l0.013-13.772c0-0.002,5.257,0.764,8.194,1.3v-8.159c2.294,2.958,3.674,6.663,3.674,10.694
		C65.474,60.701,57.912,68.401,48.489,68.663z"/>
	<path opacity="0.2" enable-background="new    " d="M66.329,29.392l2.663-4.606c0.271-0.473,0.109-1.085-0.366-1.358l-6.886-3.978
		c-0.476-0.275-1.089-0.108-1.358,0.363l-2.66,4.602c-0.887-0.321-1.794-0.602-2.717-0.834c0.569-0.351,0.946-0.976,0.946-1.686
		v-6.63c0-1.094-0.893-1.988-1.988-1.988H42.026c-1.094,0-1.99,0.895-1.99,1.988v6.63c0,0.712,0.385,1.336,0.951,1.687
		c-0.943,0.239-1.869,0.522-2.773,0.851l-2.694-4.668c-0.276-0.476-0.885-0.637-1.36-0.364l-6.888,3.976
		c-0.473,0.274-0.638,0.884-0.365,1.358l2.715,4.696c-6.193,5.23-10.13,13.045-10.13,21.783c0,16.321,12.296,28.505,28.504,28.505
		c15.747,0,28.505-12.757,28.505-28.505C76.501,42.455,72.549,34.621,66.329,29.392z M29.167,51.217
		c0-10.398,8.433-18.83,18.83-18.83c3.111,0,6.041,0.767,8.626,2.104c-2.908-0.488-6.113-0.931-8.282-1.154
		c-1.594,0-2.991,1.005-2.991,2.849V55.38c-0.507-0.301-2.553,0.006-3.917,0.504c-2.421,0.879-4.224,2.479-5.042,3.997
		c-0.855,1.573-1.426,3.771-0.834,5.3c0.035,0.088,0.079,0.169,0.117,0.251C31.693,61.98,29.167,56.898,29.167,51.217z
		 M47.996,70.045c-1.993,0-3.91-0.313-5.714-0.887c1.363-0.021,2.773-0.301,4.097-0.784c1.177-0.432,2.538-1.368,3.32-2.078
		c0.871-0.645,2.242-2.811,2.406-3.752c0.092-0.289,0.136-1.098,0.144-1.389l0.013-15.336c0-0.001,5.257,0.763,8.194,1.3v-9.996
		c3.898,3.452,6.371,8.479,6.371,14.095C66.827,61.62,58.4,70.045,47.996,70.045z"/>
	<path opacity="0.25" enable-background="new    " d="M53.299,14.273H42.689c-0.91,0-1.657,0.745-1.657,1.657v5.303
		c0,0.911,0.747,1.657,1.657,1.657h10.609c0.909,0,1.657-0.748,1.657-1.657V15.93C54.953,15.019,54.208,14.273,53.299,14.273z"/>
	<path opacity="0.25" enable-background="new    " d="M67.556,23.957l-5.742-3.314c-0.315-0.183-0.723-0.072-0.905,0.243
		l-2.054,3.558c-0.185,0.315-0.073,0.724,0.24,0.906l5.743,3.313c0.312,0.184,0.721,0.075,0.9-0.242l2.058-3.557
		C67.979,24.545,67.869,24.14,67.556,23.957z"/>
	<path opacity="0.25" enable-background="new    " d="M34.084,20.593l-5.743,3.313c-0.314,0.184-0.423,0.593-0.24,0.908l2.053,3.557
		c0.183,0.316,0.59,0.425,0.907,0.243l5.742-3.314c0.315-0.184,0.423-0.591,0.243-0.907l-2.055-3.559
		C34.808,20.521,34.4,20.411,34.084,20.593z"/>
	<path opacity="0.25" enable-background="new    " d="M59.116,45.556v-9.232c-3.438-0.729-7.567-1.313-10.774-1.646
		c-0.999,0-1.651,0.858-1.651,1.509v20.536c-1.126-0.67-3.274-0.224-5.257,0.504c-2.421,0.88-3.555,2.479-4.372,3.994
		c-0.508,0.935-0.507,3.075-0.165,3.96c0.842,2.154,5.025,3.298,8.366,2.078c1.177-0.436,2.313-0.922,3.097-1.632
		c0.873-0.648,2.239-2.142,2.405-3.083c0.092-0.289,0.141-1.097,0.145-1.389l0.012-16.901
		C50.922,44.253,56.176,45.018,59.116,45.556z"/>
	<path opacity="0.25" enable-background="new    " d="M47.996,23.706c-15.192,0-27.509,12.316-27.509,27.511
		c0,15.215,12.37,27.517,27.509,27.517c15.195,0,27.516-12.32,27.516-27.517C75.512,36.023,63.191,23.706,47.996,23.706z
		 M47.996,71.402c-11.146,0-20.187-9.034-20.187-20.186c0-11.147,9.04-20.188,20.187-20.188c11.152,0,20.191,9.04,20.191,20.188
		C68.188,62.368,59.148,71.402,47.996,71.402z"/>
	<g>
		
			<linearGradient id="SVGID_3_" gradientUnits="userSpaceOnUse" x1="1321.0527" y1="-1876.313" x2="1321.0527" y2="-1813.8807" gradientTransform="matrix(1 0 0 -1 -1273.0586 -1798.5615)">
			<stop  offset="0" style="stop-color:#CCCCCB"/>
			<stop  offset="0.1818" style="stop-color:#DAD9D9"/>
			<stop  offset="0.8606" style="stop-color:#F9F9F9"/>
			<stop  offset="1" style="stop-color:#F9F9F9"/>
		</linearGradient>
		<path fill="url(#SVGID_3_)" d="M47.996,26.025c0.781,0,1.552,0.041,2.318,0.111v-4.406h-4.64v4.407
			C46.439,26.065,47.21,26.025,47.996,26.025z"/>
	</g>
	<g>
		
			<linearGradient id="SVGID_4_" gradientUnits="userSpaceOnUse" x1="1334.7168" y1="-1876.3032" x2="1334.7168" y2="-1813.8817" gradientTransform="matrix(1 0 0 -1 -1273.0586 -1798.5615)">
			<stop  offset="0" style="stop-color:#CCCCCB"/>
			<stop  offset="0.1818" style="stop-color:#DAD9D9"/>
			<stop  offset="0.8606" style="stop-color:#F9F9F9"/>
			<stop  offset="1" style="stop-color:#F9F9F9"/>
		</linearGradient>
		<path fill="url(#SVGID_4_)" d="M62.004,30.278l2.176-3.767l-2.87-1.659l-2.173,3.77C60.129,29.113,61.092,29.662,62.004,30.278z"
			/>
	</g>
	<g>
		
			<linearGradient id="SVGID_5_" gradientUnits="userSpaceOnUse" x1="1307.3906" y1="-1876.313" x2="1307.3906" y2="-1813.8792" gradientTransform="matrix(1 0 0 -1 -1273.0586 -1798.5615)">
			<stop  offset="0" style="stop-color:#CCCCCB"/>
			<stop  offset="0.1818" style="stop-color:#DAD9D9"/>
			<stop  offset="0.8606" style="stop-color:#F9F9F9"/>
			<stop  offset="1" style="stop-color:#F9F9F9"/>
		</linearGradient>
		<path fill="url(#SVGID_5_)" d="M36.855,28.623l-2.177-3.771l-2.87,1.66l2.176,3.768C34.9,29.666,35.858,29.113,36.855,28.623z"/>
	</g>
	<g>
		<rect x="45.673" y="21.73" opacity="0.05" enable-background="new    " width="4.64" height="3.148"/>
		<rect x="45.673" y="21.73" opacity="0.1" enable-background="new    " width="4.64" height="2.154"/>
		<rect x="45.673" y="21.73" opacity="0.15" enable-background="new    " width="4.64" height="1.16"/>
		
			<rect x="60.098" y="25.558" transform="matrix(-0.5004 0.8658 -0.8658 -0.5004 116.3789 -12.7266)" opacity="0.05" enable-background="new    " width="3.526" height="3.314"/>
		
			<rect x="60.844" y="25.125" transform="matrix(-0.4999 0.8661 -0.8661 -0.4999 116.3545 -13.6223)" opacity="0.1" enable-background="new    " width="2.532" height="3.316"/>
		
			<rect x="61.591" y="24.687" transform="matrix(-0.5005 0.8657 -0.8657 -0.5005 116.3787 -14.4551)" opacity="0.15" enable-background="new    " width="1.537" height="3.316"/>
		
			<rect x="32.383" y="25.511" transform="matrix(0.5 0.866 -0.866 0.5 40.5817 -15.947)" opacity="0.05" enable-background="new    " width="3.436" height="3.317"/>
		
			<rect x="32.632" y="25.08" transform="matrix(0.5007 0.8656 -0.8656 0.5007 40.0467 -15.9538)" opacity="0.1" enable-background="new    " width="2.442" height="3.314"/>
		
			<rect x="31.947" y="25.585" transform="matrix(-0.8658 0.5005 -0.5005 -0.8658 75.8655 32.2684)" opacity="0.15" enable-background="new    " width="3.316" height="1.448"/>
	</g>
	
		<linearGradient id="SVGID_6_" gradientUnits="userSpaceOnUse" x1="1321.0547" y1="-1876.3091" x2="1321.0547" y2="-1813.882" gradientTransform="matrix(1 0 0 -1 -1273.0586 -1798.5615)">
		<stop  offset="0" style="stop-color:#D9D9D9"/>
		<stop  offset="1" style="stop-color:#F2F2F2"/>
	</linearGradient>
	<path fill="url(#SVGID_6_)" d="M52.638,15.267h-9.281c-0.729,0-1.325,0.596-1.325,1.325v3.978c0,0.729,0.596,1.324,1.325,1.324
		h9.281c0.728,0,1.323-0.595,1.323-1.324v-3.978C53.961,15.863,53.365,15.267,52.638,15.267z"/>
	<path fill="#FFFFFF" d="M52.638,15.267h-9.281c-0.729,0-1.325,0.596-1.325,1.325v1.658c0-0.73,0.596-1.326,1.325-1.326h9.281
		c0.728,0,1.323,0.596,1.323,1.326v-1.658C53.961,15.863,53.365,15.267,52.638,15.267z"/>
	
		<linearGradient id="SVGID_7_" gradientUnits="userSpaceOnUse" x1="2138.4746" y1="-1033.4888" x2="2084.4124" y2="-939.8504" gradientTransform="matrix(0.866 0.5 0.5 -0.866 -1271.8521 -1839.7681)">
		<stop  offset="0" style="stop-color:#D9D9D9"/>
		<stop  offset="1" style="stop-color:#F2F2F2"/>
	</linearGradient>
	<polygon fill="url(#SVGID_7_)" points="61.602,21.672 66.766,24.653 65.047,27.638 59.882,24.653 	"/>
	
		<rect x="63.071" y="20.826" transform="matrix(-0.4996 0.8663 -0.8663 -0.4996 116.3235 -19.5794)" fill="#FFFFFF" width="1.491" height="5.965"/>
	
		<linearGradient id="SVGID_8_" gradientUnits="userSpaceOnUse" x1="163.2256" y1="-2277.061" x2="217.2624" y2="-2183.4663" gradientTransform="matrix(0.866 -0.5 -0.5 -0.866 -1247.3081 -1757.687)">
		<stop  offset="0" style="stop-color:#D9D9D9"/>
		<stop  offset="1" style="stop-color:#F2F2F2"/>
	</linearGradient>
	<polygon fill="url(#SVGID_8_)" points="29.128,24.604 34.294,21.622 36.019,24.604 30.85,27.586 	"/>
	
		<rect x="31.337" y="20.775" transform="matrix(0.5 0.866 -0.866 0.5 36.6157 -15.905)" fill="#FFFFFF" width="1.49" height="5.967"/>
	
		<linearGradient id="SVGID_9_" gradientUnits="userSpaceOnUse" x1="1321.0586" y1="-1876.2969" x2="1321.0586" y2="-1813.8701" gradientTransform="matrix(1 0 0 -1 -1273.0586 -1798.5615)">
		<stop  offset="0" style="stop-color:#D9D9D9"/>
		<stop  offset="1" style="stop-color:#F2F2F2"/>
	</linearGradient>
	<path fill="url(#SVGID_9_)" d="M21.481,51.217c0,14.646,11.871,26.519,26.515,26.519c14.648,0,26.522-11.872,26.522-26.519
		c0-14.643-11.874-26.514-26.522-26.514C33.352,24.703,21.481,36.574,21.481,51.217z M26.453,51.217
		c0-11.896,9.646-21.544,21.543-21.544c11.9,0,21.548,9.647,21.548,21.544c0,11.901-9.647,21.54-21.548,21.54
		C36.1,72.757,26.453,63.118,26.453,51.217z"/>
	
		<linearGradient id="SVGID_10_" gradientUnits="userSpaceOnUse" x1="-1410.6572" y1="3751.1504" x2="-1410.6572" y2="3705.4111" gradientTransform="matrix(-1 0 0 1 -1362.6582 -3677.0635)">
		<stop  offset="0" style="stop-color:#FFFFFF"/>
		<stop  offset="1" style="stop-color:#FFFFFF;stop-opacity:0"/>
	</linearGradient>
	<path fill="url(#SVGID_10_)" d="M25.129,51.217c0,12.636,10.237,22.87,22.867,22.87s22.873-10.234,22.873-22.87
		c0-12.626-10.243-22.87-22.873-22.87S25.129,38.591,25.129,51.217z M26.453,51.217c0-11.896,9.646-21.544,21.543-21.544
		c11.9,0,21.548,9.647,21.548,21.544c0,11.901-9.647,21.54-21.548,21.54C36.1,72.757,26.453,63.118,26.453,51.217z"/>
	
		<linearGradient id="SVGID_11_" gradientUnits="userSpaceOnUse" x1="-1410.6582" y1="3754.7988" x2="-1410.6582" y2="3701.7666" gradientTransform="matrix(-1 0 0 1 -1362.6582 -3677.0635)">
		<stop  offset="0" style="stop-color:#FFFFFF;stop-opacity:0"/>
		<stop  offset="1" style="stop-color:#FFFFFF"/>
	</linearGradient>
	<path fill="url(#SVGID_11_)" d="M21.481,51.217c0,14.646,11.871,26.519,26.515,26.519c14.648,0,26.522-11.872,26.522-26.519
		c0-14.643-11.874-26.514-26.522-26.514C33.352,24.703,21.481,36.574,21.481,51.217z M22.807,51.217
		c0-13.912,11.276-25.193,25.189-25.193c13.912,0,25.195,11.281,25.195,25.193c0,13.914-11.283,25.192-25.195,25.192
		C34.083,76.409,22.807,65.132,22.807,51.217z"/>
	
		<linearGradient id="SVGID_12_" gradientUnits="userSpaceOnUse" x1="2269.7207" y1="-3125.0977" x2="2269.7207" y2="-3080.0051" gradientTransform="matrix(1 0 0 -1 -2221.7578 -3051.3623)">
		<stop  offset="0" style="stop-color:#CCCCCC"/>
		<stop  offset="0.1152" style="stop-color:#D9D9D9"/>
		<stop  offset="0.8606" style="stop-color:#F8F8F8"/>
		<stop  offset="1" style="stop-color:#F8F8F8"/>
	</linearGradient>
	<path fill="url(#SVGID_12_)" d="M57.914,44.061v-6.592c-3.146-0.686-6.04-0.99-8.979-1.3c-0.604,0-0.912,0.31-0.912,0.923v21.379
		c-1.375-0.83-3.533-0.949-5.688-0.139c-1.814,0.673-3.202,1.852-3.872,3.125c-0.466,0.879-0.596,1.791-0.283,2.625
		c0.771,2.025,3.886,2.734,6.947,1.591c1.077-0.405,1.99-0.991,2.707-1.654c0.798-0.609,1.332-1.411,1.48-2.291
		c0.086-0.277,0.125-0.548,0.133-0.817V42.716l0.447,0.061C52.459,43.066,55.221,43.557,57.914,44.061z"/>
	<g>
		<path fill="#FFFFFF" d="M38.461,62.477c0.67-1.27,2.058-2.454,3.872-3.128c2.154-0.809,4.315-0.688,5.688,0.144v-1.019
			c-1.374-0.831-3.535-0.949-5.688-0.139c-1.813,0.672-3.202,1.852-3.872,3.125c-0.383,0.723-0.534,1.468-0.404,2.173
			C38.126,63.245,38.26,62.858,38.461,62.477z"/>
		<path fill="#FFFFFF" d="M48.936,36.17c-0.604,0-0.912,0.31-0.912,0.922v1.015c0-0.612,0.308-0.922,0.912-0.922
			c2.938,0.311,5.832,0.616,8.979,1.302V37.47C54.768,36.784,51.874,36.481,48.936,36.17z"/>
	</g>
</g>
</svg>
